<svg xmlns="http://www.w3.org/2000/svg" xmlns:svgjs="http://svgjs.com/svgjs" xmlns:xlink="http://www.w3.org/1999/xlink" width="288" height="288"><svg xmlns="http://www.w3.org/2000/svg" width="288" height="288" viewBox="0 0 72 72"><path fill="#fff" d="M30.489 66.511a8.447 8.447 0 0 1-2.488-6.011V44L11.5 43.999a8.439 8.439 0 0 1-6.011-2.489 8.442 8.442 0 0 1-2.488-6.01 8.444 8.444 0 0 1 2.488-6.011 8.442 8.442 0 0 1 6.012-2.488L28 27l.001-15.5c-.001-2.27.883-4.405 2.488-6.011S34.23 3 36.5 3.001c2.27 0 4.404.883 6.011 2.489a8.44 8.44 0 0 1 2.488 6.011l.001 15.5h15.5c2.271 0 4.404.883 6.011 2.489a8.433 8.433 0 0 1 2.488 6.01c.001 2.27-.883 4.405-2.488 6.011S62.77 44 60.5 43.999l-15.5.002-.001 16.499a8.444 8.444 0 0 1-2.488 6.011 8.444 8.444 0 0 1-6.011 2.488 8.439 8.439 0 0 1-6.011-2.488zm.926-25.925c.361.362.585.861.585 1.414l.001 18.5c0 1.204.468 2.333 1.317 3.183A4.471 4.471 0 0 0 36.5 65a4.476 4.476 0 0 0 3.182-1.317 4.457 4.457 0 0 0 1.317-3.182l.002-18.5a2 2 0 0 1 2-2L60.5 40a4.47 4.47 0 0 0 3.182-1.317A4.471 4.471 0 0 0 65 35.5a4.475 4.475 0 0 0-1.318-3.182 4.456 4.456 0 0 0-3.18-1.316L43 31a2 2 0 0 1-2-1.999L40.999 11.5a4.473 4.473 0 0 0-1.316-3.182 4.467 4.467 0 0 0-3.182-1.317 4.474 4.474 0 0 0-3.184 1.317A4.472 4.472 0 0 0 32 11.5V29a2 2 0 0 1-2 2l-18.5.001a4.473 4.473 0 0 0-3.183 1.317A4.48 4.48 0 0 0 7 35.5c0 1.203.469 2.332 1.317 3.182a4.463 4.463 0 0 0 3.183 1.317l18.5.002c.553 0 1.053.224 1.415.585z" class="color000 svgShape"/></svg></svg>